<svg version="1.1" preserveAspectRatio="none" xmlns="http://www.w3.org/2000/svg" width="500" height="500" viewBox="0 0 500 500"><rect width="100%" height="100%" fill="#E7879A" fill-opacity="1"/><svg viewBox="108.1832 237.1874 364.4059 70" width="333" height="63.96713115786545" x="83.5px" y="218.0164px" xmlns="http://www.w3.org/2000/svg" xmlns:xlink="http://www.w3.org/1999/xlink" preserveAspectRatio="none"><defs></defs><style>.companyName {fill:#EFEFEF;fill-opacity:1;}.icon3-str {stroke:#5F6984;stroke-opacity:1;}</style><g opacity="1" transform="rotate(0 108.1832 237.1874)">
<svg width="364.4059" height="70" x="108.1832" y="237.1874" version="1.1" preserveAspectRatio="none" viewBox="0 -29.7461 162.0703 31.1328">
  <g transform="matrix(1 0 0 1 0 0)" class="companyName"><path id="id-D6z1nYkh8" d="M29.67-28.34L29.67-28.34Q29.67-27.66 29.30-26.99Q28.93-26.33 28.34-25.76Q27.75-25.20 27.02-24.74Q26.29-24.28 25.57-23.98L25.57-23.98Q25.37-23.16 25.25-22.16Q25.14-21.15 25.10-19.92L25.10-19.92Q25.06-18.40 24.98-16.89Q24.90-15.39 24.75-13.91L24.75-13.91Q26.33-13.96 28.20-14.03Q30.08-14.10 32.13-14.16Q34.18-14.22 36.34-14.26Q38.50-14.30 40.64-14.30L40.64-14.30Q40.80-17.42 41.33-19.84Q41.86-22.27 42.71-23.93Q43.55-25.59 44.71-26.45Q45.86-27.30 47.27-27.30L47.27-27.30Q47.50-27.30 47.84-27.27Q48.18-27.23 48.52-27.12Q48.85-27.01 49.08-26.81Q49.32-26.60 49.32-26.25L49.32-26.25Q49.32-26.15 49.30-26.06Q49.28-25.98 49.22-25.88L49.22-25.88Q49.00-25.53 48.63-25.53L48.63-25.53Q48.48-25.53 48.39-25.58Q48.30-25.63 48.17-25.67Q48.05-25.72 47.85-25.77Q47.66-25.82 47.30-25.82L47.30-25.82Q47.01-25.82 46.55-25.71Q46.09-25.61 45.57-25.21Q45.04-24.82 44.48-24.07Q43.93-23.32 43.45-22.04Q42.97-20.76 42.61-18.87Q42.25-16.97 42.13-14.30L42.13-14.30Q43.42-14.28 44.67-14.26Q45.92-14.24 47.13-14.20L47.13-14.20Q47.46-14.20 47.65-13.97Q47.83-13.75 47.83-13.44L47.83-13.44Q47.83-13.13 47.62-12.93Q47.40-12.73 47.11-12.73L47.11-12.73Q46.72-12.73 46.30-12.74Q45.88-12.75 45.30-12.77Q44.73-12.79 43.95-12.81Q43.16-12.83 42.09-12.83L42.09-12.83Q42.07-12.52 42.07-12.21Q42.07-11.89 42.07-11.56L42.07-11.56Q42.07-9.41 42.24-7.71Q42.40-6.02 42.65-4.71Q42.89-3.40 43.18-2.47Q43.48-1.54 43.73-0.95Q43.98-0.35 44.15-0.07Q44.32 0.21 44.32 0.21L44.32 0.21Q44.45 0.41 44.45 0.64L44.45 0.64Q44.45 0.94 44.24 1.16Q44.02 1.39 43.71 1.39L43.71 1.39Q43.34 1.39 43.13 1.07L43.13 1.07Q43.09 1.02 42.69 0.31Q42.29-0.39 41.82-1.90Q41.35-3.42 40.97-5.79Q40.59-8.16 40.59-11.56L40.59-11.56L40.59-12.83Q38.42-12.83 36.23-12.79Q34.04-12.75 31.98-12.70Q29.92-12.64 28.04-12.57Q26.15-12.50 24.57-12.44L24.57-12.44Q24.20-9.73 23.43-7.32Q22.66-4.92 21.22-3.12Q19.79-1.31 17.56-0.26Q15.33 0.78 12.07 0.78L12.07 0.78Q10.35 0.78 8.74 0.42Q7.13 0.06 5.74-0.60Q4.36-1.25 3.24-2.17Q2.13-3.09 1.43-4.18L1.43-4.18Q1.31-4.36 1.31-4.57L1.31-4.57Q1.31-4.86 1.51-5.09Q1.72-5.31 2.05-5.31L2.05-5.31Q2.23-5.31 2.40-5.22Q2.58-5.14 2.68-4.98L2.68-4.98Q3.28-4.02 4.25-3.24Q5.21-2.46 6.45-1.89Q7.68-1.33 9.11-1.02Q10.55-0.70 12.09-0.70L12.09-0.70Q14.96-0.70 16.91-1.61Q18.87-2.52 20.11-4.10Q21.35-5.68 22.02-7.80Q22.70-9.92 23.03-12.36L23.03-12.36Q21.15-12.27 20.06-12.21Q18.96-12.15 18.93-12.15L18.93-12.15Q18.63-12.15 18.39-12.33Q18.14-12.52 18.14-12.85L18.14-12.85Q18.14-13.16 18.33-13.38Q18.52-13.59 18.83-13.63L18.83-13.63Q18.87-13.63 20.04-13.69Q21.21-13.75 23.20-13.85L23.20-13.85Q23.36-15.35 23.45-16.88Q23.54-18.42 23.61-19.98L23.61-19.98Q23.65-20.98 23.76-21.90Q23.87-22.83 24.02-23.59L24.02-23.59Q23.57-23.50 23.02-23.43Q22.46-23.36 21.91-23.36L21.91-23.36Q20.20-23.36 18.54-23.63Q16.88-23.91 15.21-24.23Q13.54-24.55 11.85-24.82Q10.16-25.10 8.40-25.10L8.40-25.10Q6.95-25.10 5.69-24.79Q4.43-24.49 3.50-23.87Q2.56-23.24 2.02-22.29Q1.48-21.35 1.48-20.06L1.48-20.06Q1.48-19.24 1.78-18.61Q2.07-17.99 2.44-17.56Q2.81-17.13 3.15-16.88Q3.50-16.64 3.59-16.58L3.59-16.58Q3.95-16.33 3.95-15.94L3.95-15.94Q3.95-15.63 3.75-15.42Q3.55-15.21 3.26-15.21L3.26-15.21Q3.13-15.21 3.00-15.26Q2.87-15.31 2.77-15.37L2.77-15.37Q2.32-15.64 1.84-16.07Q1.35-16.50 0.94-17.10Q0.53-17.70 0.26-18.44Q0-19.18 0-20.06L0-20.06Q0-21.78 0.75-23.02Q1.50-24.26 2.71-25.05Q3.93-25.84 5.42-26.21Q6.91-26.58 8.42-26.58L8.42-26.58Q10.12-26.58 11.79-26.30Q13.46-26.02 15.14-25.68Q16.82-25.35 18.51-25.07Q20.20-24.79 21.95-24.79L21.95-24.79Q22.66-24.79 23.22-24.83Q23.79-24.88 24.30-25.04L24.30-25.04Q24.65-26.27 25.11-27.16Q25.57-28.05 26.08-28.62Q26.60-29.20 27.13-29.47Q27.66-29.75 28.14-29.75L28.14-29.75Q28.79-29.75 29.23-29.36Q29.67-28.96 29.67-28.34ZM28.05-28.36L28.05-28.36Q27.89-28.36 27.63-28.19Q27.36-28.03 27.05-27.69Q26.74-27.34 26.43-26.82Q26.11-26.29 25.88-25.57L25.88-25.57Q26.52-25.86 27.01-26.33Q27.50-26.80 27.79-27.26Q28.09-27.71 28.16-28.04Q28.24-28.36 28.05-28.36Z M57.11-2.15L57.11-2.15Q56.62-2.15 56.25-2.23L56.25-2.23Q55.96-1.64 55.55-1.14Q55.14-0.64 54.60-0.27Q54.06 0.10 53.40 0.31Q52.73 0.53 51.95 0.53L51.95 0.53Q51.04 0.53 50.27 0.21Q49.51-0.12 48.95-0.69Q48.38-1.27 48.07-2.08Q47.75-2.89 47.75-3.87L47.75-3.87Q47.75-5.12 48.20-6.04Q48.65-6.97 49.24-7.59Q49.82-8.20 50.41-8.51Q51.00-8.81 51.29-8.81L51.29-8.81Q51.62-8.81 51.79-8.63Q51.95-8.46 51.95-8.16L51.95-8.16Q51.95-7.83 51.75-7.67Q51.54-7.50 51.23-7.34L51.23-7.34Q50.92-7.19 50.57-6.90Q50.21-6.62 49.91-6.19Q49.61-5.76 49.41-5.18Q49.22-4.59 49.22-3.87L49.22-3.87Q49.22-3.22 49.41-2.67Q49.61-2.11 49.98-1.71Q50.35-1.31 50.86-1.08Q51.37-0.86 51.99-0.86L51.99-0.86Q53.11-0.86 53.84-1.38Q54.57-1.89 54.96-2.70L54.96-2.70Q53.81-3.30 53.07-4.41Q52.32-5.53 52.32-6.91L52.32-6.91Q52.32-8.03 52.86-8.73Q53.40-9.43 54.28-9.43L54.28-9.43Q54.80-9.43 55.27-9.18Q55.74-8.93 56.10-8.38Q56.46-7.83 56.68-6.97Q56.89-6.11 56.89-4.92L56.89-4.92Q56.89-4.30 56.74-3.61L56.74-3.61Q56.86-3.59 56.97-3.59Q57.09-3.59 57.23-3.59L57.23-3.59Q57.89-3.59 58.42-3.75Q58.95-3.91 59.38-4.22Q59.80-4.53 60.15-5.02Q60.49-5.51 60.80-6.15L60.80-6.15Q60.86-6.27 61.05-6.38Q61.25-6.48 61.45-6.48L61.45-6.48Q61.70-6.48 61.92-6.28Q62.15-6.07 62.15-5.74L62.15-5.74Q62.15-5.59 62.07-5.40Q61.99-5.21 61.91-5.06L61.91-5.06Q61.58-4.47 61.14-3.94Q60.70-3.40 60.11-3.00Q59.51-2.60 58.77-2.36Q58.03-2.13 57.11-2.15ZM53.77-7.07L53.77-7.07Q53.77-6.70 53.87-6.29Q53.96-5.88 54.17-5.48Q54.38-5.08 54.68-4.72Q54.98-4.36 55.39-4.10L55.39-4.10Q55.45-4.51 55.45-4.90L55.45-4.90Q55.45-5.43 55.37-5.98Q55.29-6.52 55.15-6.98Q55-7.44 54.79-7.72Q54.57-8.01 54.28-8.01L54.28-8.01Q54.16-8.01 53.96-7.83Q53.77-7.66 53.77-7.07Z M65.25-1.74L65.25-1.74Q65.55-2.32 66.01-3.19Q66.46-4.06 66.96-4.94Q67.46-5.82 67.94-6.60Q68.42-7.38 68.75-7.79L68.75-7.79Q69.32-8.48 69.92-8.77Q70.53-9.06 71.04-9.06L71.04-9.06Q71.54-9.06 71.90-8.85Q72.27-8.63 72.50-8.27Q72.73-7.91 72.85-7.43Q72.97-6.95 72.97-6.41L72.97-6.41Q72.97-6.09 72.94-5.59Q72.91-5.08 72.88-4.49Q72.85-3.91 72.82-3.28Q72.79-2.66 72.77-2.11L72.77-2.11Q73.07-2.70 73.44-3.41Q73.81-4.12 74.19-4.82Q74.57-5.53 74.92-6.14Q75.27-6.76 75.57-7.15L75.57-7.15Q76.41-8.30 77.14-8.69Q77.87-9.08 78.44-9.08L78.44-9.08Q79.10-9.08 79.53-8.84Q79.96-8.59 80.21-8.21Q80.45-7.83 80.55-7.36Q80.64-6.89 80.64-6.46L80.64-6.46Q80.64-5.80 80.55-5.08Q80.45-4.36 80.45-3.36L80.45-3.36Q80.45-2.95 80.49-2.54Q80.53-2.13 80.65-1.82Q80.78-1.50 81.05-1.31Q81.33-1.11 81.80-1.11L81.80-1.11Q82.30-1.11 82.79-1.38Q83.28-1.64 83.73-2.07Q84.18-2.50 84.58-3.05Q84.98-3.59 85.31-4.14Q85.64-4.69 85.90-5.19Q86.15-5.68 86.31-6.04L86.31-6.04Q86.41-6.25 86.58-6.37Q86.76-6.48 86.97-6.48L86.97-6.48Q87.30-6.48 87.51-6.24Q87.71-6.00 87.71-5.72L87.71-5.72Q87.71-5.59 87.66-5.45L87.66-5.45Q87.58-5.29 87.34-4.79Q87.11-4.30 86.72-3.66Q86.33-3.03 85.81-2.32Q85.29-1.62 84.67-1.03Q84.04-0.43 83.32-0.05Q82.60 0.33 81.80 0.33L81.80 0.33Q80.94 0.33 80.40 0.03Q79.86-0.27 79.54-0.78Q79.22-1.29 79.10-1.95Q78.98-2.62 78.98-3.34L78.98-3.34Q78.98-4.30 79.08-5.11Q79.18-5.92 79.18-6.37L79.18-6.37Q79.18-6.86 79.09-7.11Q79.00-7.36 78.88-7.47Q78.75-7.58 78.63-7.59Q78.52-7.60 78.46-7.60L78.46-7.60Q77.99-7.60 77.47-7.08Q76.95-6.56 76.41-5.70Q75.86-4.84 75.28-3.75Q74.71-2.66 74.12-1.52L74.12-1.52Q73.79-0.90 73.56-0.49Q73.34-0.08 73.13 0.16Q72.93 0.39 72.73 0.49Q72.54 0.59 72.30 0.59L72.30 0.59Q71.80 0.59 71.53 0.23Q71.27-0.12 71.27-0.68L71.27-0.68Q71.27-0.98 71.29-1.46Q71.31-1.95 71.33-2.54Q71.35-3.13 71.39-3.75Q71.43-4.38 71.45-4.95Q71.46-5.53 71.48-5.98Q71.50-6.43 71.50-6.66L71.50-6.66Q71.50-7.17 71.33-7.39Q71.15-7.62 70.92-7.62L70.92-7.62Q70.70-7.62 70.44-7.46Q70.18-7.30 69.82-6.86L69.82-6.86Q69.55-6.50 69.13-5.83Q68.71-5.16 68.24-4.34Q67.77-3.52 67.31-2.66Q66.86-1.80 66.52-1.11L66.52-1.11Q66.11-0.29 65.70 0.01Q65.29 0.31 64.90 0.31L64.90 0.31Q64.34 0.31 64.06-0.03Q63.79-0.37 63.79-0.94L63.79-0.94Q63.79-1.00 63.82-1.64Q63.85-2.29 63.89-3.21Q63.93-4.14 63.97-5.20Q64.02-6.25 64.06-7.17L64.06-7.17Q64.08-7.66 64.02-8.07Q63.96-8.48 63.87-8.55L63.87-8.55Q63.71-8.52 63.25-7.83Q62.79-7.15 62.09-5.45L62.09-5.45Q61.99-5.23 61.80-5.12Q61.60-5 61.39-5L61.39-5Q61.05-5 60.86-5.22Q60.66-5.45 60.66-5.74L60.66-5.74Q60.66-5.88 60.72-6.04L60.72-6.04Q61.60-8.13 62.40-9.11Q63.20-10.10 63.96-10.10L63.96-10.10Q64.41-10.10 64.72-9.89Q65.02-9.69 65.20-9.37Q65.37-9.04 65.45-8.63Q65.53-8.22 65.53-7.83L65.53-7.83Q65.53-6.09 65.44-4.65Q65.35-3.20 65.25-1.74Z M88.65-2.15L88.65-2.15Q89.06-1.58 89.71-1.24Q90.35-0.90 91.29-0.90L91.29-0.90Q92.25-0.90 93.03-1.36Q93.81-1.82 94.45-2.56Q95.10-3.30 95.61-4.22Q96.11-5.14 96.52-6.05L96.52-6.05Q96.62-6.27 96.80-6.38Q96.97-6.48 97.19-6.48L97.19-6.48Q97.52-6.48 97.72-6.25Q97.93-6.02 97.93-5.74L97.93-5.74Q97.93-5.64 97.91-5.58Q97.89-5.51 97.85-5.43L97.85-5.43Q96.50-2.46 94.91-0.96Q93.32 0.55 91.31 0.59L91.31 0.59Q90.02 0.59 89.08 0.09Q88.14-0.41 87.54-1.20Q86.93-1.99 86.64-2.99Q86.35-3.98 86.35-4.98L86.35-4.98Q86.35-5.98 86.59-6.82Q86.84-7.66 87.29-8.28Q87.75-8.91 88.39-9.26Q89.02-9.61 89.79-9.61L89.79-9.61Q90.23-9.61 90.67-9.42Q91.11-9.24 91.46-8.90Q91.82-8.55 92.03-8.07Q92.25-7.58 92.25-6.95L92.25-6.95Q92.25-6.15 91.97-5.45Q91.70-4.75 91.22-4.14Q90.74-3.54 90.08-3.03Q89.41-2.52 88.65-2.15ZM88.07-3.42L88.07-3.42Q88.67-3.67 89.17-4.06Q89.67-4.45 90.02-4.92Q90.37-5.39 90.57-5.91Q90.76-6.43 90.76-6.95L90.76-6.95Q90.76-7.54 90.47-7.84Q90.18-8.14 89.79-8.14L89.79-8.14Q89.26-8.14 88.89-7.85Q88.52-7.56 88.28-7.09Q88.05-6.62 87.94-6.04Q87.83-5.47 87.83-4.90L87.83-4.90Q87.83-4.55 87.90-4.16Q87.97-3.77 88.07-3.42Z M101.04-1.74L101.04-1.74Q101.33-2.32 101.79-3.19Q102.25-4.06 102.74-4.94Q103.24-5.82 103.72-6.60Q104.20-7.38 104.53-7.79L104.53-7.79Q105.10-8.48 105.70-8.77Q106.31-9.06 106.82-9.06L106.82-9.06Q107.32-9.06 107.69-8.85Q108.05-8.63 108.28-8.27Q108.52-7.91 108.63-7.43Q108.75-6.95 108.75-6.41L108.75-6.41Q108.75-6.09 108.72-5.59Q108.69-5.08 108.66-4.49Q108.63-3.91 108.60-3.28Q108.57-2.66 108.55-2.11L108.55-2.11Q108.85-2.70 109.22-3.41Q109.59-4.12 109.97-4.82Q110.35-5.53 110.70-6.14Q111.05-6.76 111.35-7.15L111.35-7.15Q112.19-8.30 112.92-8.69Q113.65-9.08 114.22-9.08L114.22-9.08Q114.88-9.08 115.31-8.84Q115.74-8.59 115.99-8.21Q116.23-7.83 116.33-7.36Q116.43-6.89 116.43-6.46L116.43-6.46Q116.43-5.80 116.33-5.08Q116.23-4.36 116.23-3.36L116.23-3.36Q116.23-2.95 116.27-2.54Q116.31-2.13 116.44-1.82Q116.56-1.50 116.84-1.31Q117.11-1.11 117.58-1.11L117.58-1.11Q118.09-1.11 118.57-1.38Q119.06-1.64 119.51-2.07Q119.96-2.50 120.36-3.05Q120.76-3.59 121.09-4.14Q121.43-4.69 121.68-5.19Q121.93-5.68 122.09-6.04L122.09-6.04Q122.19-6.25 122.36-6.37Q122.54-6.48 122.75-6.48L122.75-6.48Q123.09-6.48 123.29-6.24Q123.50-6.00 123.50-5.72L123.50-5.72Q123.50-5.59 123.44-5.45L123.44-5.45Q123.36-5.29 123.13-4.79Q122.89-4.30 122.50-3.66Q122.11-3.03 121.59-2.32Q121.07-1.62 120.45-1.03Q119.82-0.43 119.10-0.05Q118.38 0.33 117.58 0.33L117.58 0.33Q116.72 0.33 116.18 0.03Q115.64-0.27 115.32-0.78Q115-1.29 114.88-1.95Q114.77-2.62 114.77-3.34L114.77-3.34Q114.77-4.30 114.86-5.11Q114.96-5.92 114.96-6.37L114.96-6.37Q114.96-6.86 114.87-7.11Q114.79-7.36 114.66-7.47Q114.53-7.58 114.41-7.59Q114.30-7.60 114.24-7.60L114.24-7.60Q113.77-7.60 113.25-7.08Q112.73-6.56 112.19-5.70Q111.64-4.84 111.06-3.75Q110.49-2.66 109.90-1.52L109.90-1.52Q109.57-0.90 109.35-0.49Q109.12-0.08 108.92 0.16Q108.71 0.39 108.52 0.49Q108.32 0.59 108.09 0.59L108.09 0.59Q107.58 0.59 107.31 0.23Q107.05-0.12 107.05-0.68L107.05-0.68Q107.05-0.98 107.07-1.46Q107.09-1.95 107.11-2.54Q107.13-3.13 107.17-3.75Q107.21-4.38 107.23-4.95Q107.25-5.53 107.27-5.98Q107.29-6.43 107.29-6.66L107.29-6.66Q107.29-7.17 107.11-7.39Q106.93-7.62 106.70-7.62L106.70-7.62Q106.48-7.62 106.22-7.46Q105.96-7.30 105.61-6.86L105.61-6.86Q105.33-6.50 104.91-5.83Q104.49-5.16 104.02-4.34Q103.55-3.52 103.10-2.66Q102.64-1.80 102.30-1.11L102.30-1.11Q101.89-0.29 101.48 0.01Q101.07 0.31 100.68 0.31L100.68 0.31Q100.12 0.31 99.84-0.03Q99.57-0.37 99.57-0.94L99.57-0.94Q99.57-1.00 99.60-1.64Q99.63-2.29 99.67-3.21Q99.71-4.14 99.76-5.20Q99.80-6.25 99.84-7.17L99.84-7.17Q99.86-7.66 99.80-8.07Q99.75-8.48 99.65-8.55L99.65-8.55Q99.49-8.52 99.03-7.83Q98.57-7.15 97.87-5.45L97.87-5.45Q97.77-5.23 97.58-5.12Q97.38-5 97.17-5L97.17-5Q96.84-5 96.64-5.22Q96.45-5.45 96.45-5.74L96.45-5.74Q96.45-5.88 96.50-6.04L96.50-6.04Q97.38-8.13 98.18-9.11Q98.98-10.10 99.75-10.10L99.75-10.10Q100.20-10.10 100.50-9.89Q100.80-9.69 100.98-9.37Q101.15-9.04 101.23-8.63Q101.31-8.22 101.31-7.83L101.31-7.83Q101.31-6.09 101.22-4.65Q101.13-3.20 101.04-1.74Z M137.19-5.45L137.19-5.45Q137.11-5.29 136.87-4.79Q136.62-4.30 136.24-3.65Q135.86-3.01 135.35-2.30Q134.84-1.60 134.22-1.02Q133.59-0.43 132.87-0.05Q132.15 0.33 131.35 0.33L131.35 0.33Q130.21 0.33 129.44-0.39Q128.67-1.11 128.32-2.21L128.32-2.21Q127.66-1.09 126.74-0.44Q125.82 0.21 124.90 0.21L124.90 0.21Q124.18 0.21 123.59-0.05Q123.01-0.31 122.60-0.79Q122.19-1.27 121.96-1.91Q121.74-2.56 121.74-3.32L121.74-3.32Q121.74-4.84 122.26-6.01Q122.77-7.17 123.57-7.95Q124.38-8.73 125.34-9.12Q126.31-9.51 127.21-9.51L127.21-9.51Q127.81-9.51 128.32-9.35Q128.83-9.18 129.19-8.98Q129.55-8.79 129.75-8.62Q129.94-8.46 129.96-8.44L129.96-8.44Q130.18-8.18 130.18-7.91L130.18-7.91Q130.18-7.62 129.96-7.39Q129.75-7.17 129.45-7.17L129.45-7.17Q129.14-7.17 128.93-7.38L128.93-7.38Q128.89-7.42 128.75-7.53Q128.61-7.64 128.38-7.75Q128.14-7.87 127.82-7.96Q127.50-8.05 127.09-8.05L127.09-8.05Q126.48-8.05 125.80-7.77Q125.12-7.50 124.55-6.92Q123.98-6.35 123.60-5.48Q123.22-4.61 123.22-3.42L123.22-3.42Q123.22-3.05 123.30-2.67Q123.38-2.29 123.57-1.97Q123.77-1.66 124.10-1.46Q124.43-1.27 124.92-1.27L124.92-1.27Q125.27-1.27 125.73-1.50Q126.19-1.74 126.61-2.23Q127.03-2.71 127.37-3.46Q127.71-4.20 127.85-5.21L127.85-5.21Q127.89-5.49 128.11-5.67Q128.32-5.86 128.61-5.86L128.61-5.86Q128.89-5.86 129.09-5.64Q129.30-5.43 129.32-5.16L129.32-5.16Q129.34-4.79 129.39-4.11Q129.45-3.44 129.66-2.77Q129.86-2.11 130.27-1.62Q130.68-1.13 131.41-1.13L131.41-1.13Q131.88-1.13 132.33-1.39Q132.79-1.64 133.23-2.06Q133.67-2.48 134.07-3.02Q134.47-3.55 134.80-4.10Q135.14-4.65 135.39-5.16Q135.64-5.66 135.82-6.04L135.82-6.04Q135.92-6.25 136.10-6.37Q136.29-6.48 136.50-6.48L136.50-6.48Q136.84-6.48 137.04-6.24Q137.25-6.00 137.25-5.72L137.25-5.72Q137.25-5.59 137.19-5.45Z M143.42-5.68L143.42-5.68Q144.38-1.17 146.19-1.17L146.19-1.17Q146.89-1.17 147.54-1.69Q148.18-2.21 148.74-2.96Q149.30-3.71 149.73-4.55Q150.16-5.39 150.43-6.02L150.43-6.02Q150.63-6.48 151.11-6.48L151.11-6.48Q151.43-6.48 151.64-6.25Q151.86-6.02 151.86-5.74L151.86-5.74Q151.86-5.59 151.80-5.47L151.80-5.47Q151.66-5.14 151.40-4.58Q151.13-4.02 150.75-3.39Q150.37-2.75 149.90-2.09Q149.43-1.43 148.87-0.90Q148.30-0.37 147.67-0.03Q147.03 0.31 146.33 0.31L146.33 0.31Q145.02 0.31 144.08-0.60Q143.14-1.50 142.46-3.59L142.46-3.59Q141.52-1.60 140.57-0.70Q139.61 0.20 138.50 0.20L138.50 0.20Q137.91 0.20 137.36 0.01Q136.82-0.18 136.41-0.61Q136.00-1.04 135.74-1.71Q135.49-2.38 135.49-3.36L135.49-3.36Q135.49-4.71 135.96-5.84Q136.43-6.97 137.17-7.78Q137.91-8.59 138.82-9.04Q139.73-9.49 140.63-9.49L140.63-9.49Q140.92-9.49 141.13-9.29Q141.35-9.08 141.35-8.77L141.35-8.77Q141.35-8.50 141.17-8.28Q141.00-8.07 140.70-8.03L140.70-8.03Q140.12-7.95 139.45-7.66Q138.79-7.36 138.23-6.81Q137.68-6.25 137.31-5.39Q136.95-4.53 136.95-3.34L136.95-3.34Q136.95-2.36 137.35-1.82Q137.75-1.27 138.52-1.27L138.52-1.27Q138.83-1.27 139.18-1.44Q139.53-1.60 139.93-2.09Q140.33-2.58 140.81-3.48Q141.29-4.38 141.88-5.84L141.88-5.84Q141.54-7.56 141.27-9.80Q141.00-12.05 141.00-14.82L141.00-14.82Q141.00-16.04 141.07-17.35Q141.15-18.67 141.33-19.93Q141.50-21.19 141.80-22.32Q142.09-23.46 142.51-24.32Q142.93-25.18 143.50-25.67Q144.06-26.17 144.79-26.17L144.79-26.17Q145.43-26.17 145.88-25.82Q146.33-25.47 146.61-24.84Q146.89-24.22 147.03-23.34Q147.17-22.46 147.17-21.41L147.17-21.41Q147.17-19.14 146.78-16.88Q146.39-14.61 145.81-12.54Q145.23-10.47 144.59-8.71Q143.95-6.95 143.42-5.68ZM145.70-21.43L145.70-21.43Q145.70-21.91 145.67-22.48Q145.64-23.05 145.54-23.54Q145.43-24.04 145.25-24.38Q145.08-24.71 144.79-24.71L144.79-24.71Q144.30-24.71 143.88-23.85Q143.46-22.99 143.14-21.59Q142.83-20.20 142.65-18.43Q142.46-16.66 142.46-14.86L142.46-14.86Q142.46-13.14 142.60-11.43Q142.73-9.71 142.91-8.36L142.91-8.36Q143.48-9.86 143.98-11.46Q144.49-13.05 144.87-14.71Q145.25-16.37 145.48-18.06Q145.70-19.75 145.70-21.43Z M152.79-2.15L152.79-2.15Q153.20-1.58 153.85-1.24Q154.49-0.90 155.43-0.90L155.43-0.90Q156.39-0.90 157.17-1.36Q157.95-1.82 158.59-2.56Q159.24-3.30 159.75-4.22Q160.25-5.14 160.66-6.05L160.66-6.05Q160.76-6.27 160.94-6.38Q161.11-6.48 161.33-6.48L161.33-6.48Q161.66-6.48 161.87-6.25Q162.07-6.02 162.07-5.74L162.07-5.74Q162.07-5.64 162.05-5.58Q162.03-5.51 161.99-5.43L161.99-5.43Q160.64-2.46 159.05-0.96Q157.46 0.55 155.45 0.59L155.45 0.59Q154.16 0.59 153.22 0.09Q152.29-0.41 151.68-1.20Q151.07-1.99 150.78-2.99Q150.49-3.98 150.49-4.98L150.49-4.98Q150.49-5.98 150.73-6.82Q150.98-7.66 151.44-8.28Q151.89-8.91 152.53-9.26Q153.16-9.61 153.93-9.61L153.93-9.61Q154.38-9.61 154.81-9.42Q155.25-9.24 155.61-8.90Q155.96-8.55 156.17-8.07Q156.39-7.58 156.39-6.95L156.39-6.95Q156.39-6.15 156.11-5.45Q155.84-4.75 155.36-4.14Q154.88-3.54 154.22-3.03Q153.55-2.52 152.79-2.15ZM152.21-3.42L152.21-3.42Q152.81-3.67 153.31-4.06Q153.81-4.45 154.16-4.92Q154.51-5.39 154.71-5.91Q154.90-6.43 154.90-6.95L154.90-6.95Q154.90-7.54 154.61-7.84Q154.32-8.14 153.93-8.14L153.93-8.14Q153.40-8.14 153.03-7.85Q152.66-7.56 152.42-7.09Q152.19-6.62 152.08-6.04Q151.97-5.47 151.97-4.90L151.97-4.90Q151.97-4.55 152.04-4.16Q152.11-3.77 152.21-3.42Z"/></g>
</svg>
</g></svg></svg>